<svg width="128" height="51" viewBox="0 0 128 51" fill="none" xmlns="http://www.w3.org/2000/svg">
<path d="M1.30798 12.7499H16.4413V0.948523H14.8849V11.3908H9.65282V0.948523H8.09644V11.3908H2.86436V0.948523H1.30798V12.7499ZM28.648 0.948523H26.6114L20.6343 6.7995V0.948523H19.0779V12.7499H20.6343V8.60617L22.588 6.74977L26.8598 12.7499H28.8466L23.6808 5.68897L28.648 0.948523ZM34.7976 0.666748C31.3702 0.666748 29.1681 3.03697 29.1681 6.71662C29.1681 10.1476 31.0391 13.0317 34.8141 13.0317C38.556 13.0317 40.4601 10.2139 40.4601 6.74977C40.4601 3.23587 38.4567 0.666748 34.7976 0.666748ZM34.7976 2.0259C37.2977 2.0259 38.9037 3.91545 38.9037 6.83265C38.9037 9.76642 37.2977 11.6891 34.8307 11.6891C32.3305 11.6891 30.7245 9.783 30.7245 6.83265C30.7245 4.31325 32.0159 2.0259 34.7976 2.0259ZM51.1025 0.948523H43.7015L43.4862 8.14207C43.4034 11.1421 42.7908 11.6062 41.9464 11.6062C41.7643 11.6062 41.3172 11.5731 41.102 11.4405V12.7665C41.4 12.8825 41.8967 12.9985 42.2279 12.9985C44.016 12.9985 44.877 11.3245 44.9598 8.95425L45.1916 2.30767H49.5462V12.7499H51.1025V0.948523ZM58.6952 0.948523H56.9401L52.3041 12.7499H53.9598L55.3009 9.13657H60.2515L61.5596 12.7499H63.2981L58.6952 0.948523ZM59.7879 7.89345H55.748L57.7845 2.44027L59.7879 7.89345Z" fill="#292929"/>
<path d="M5.64601 21.3582H4.86782C4.74364 22.4604 4.13102 23.0571 3.12931 23.0571C1.90408 23.0571 1.15073 22.1372 1.15073 20.6372C1.15073 19.394 1.73851 18.2255 3.13759 18.2255C4.01512 18.2255 4.6443 18.6896 4.81815 19.4603H5.59634C5.48044 18.2006 4.31315 17.5542 3.15415 17.5542C1.34113 17.5542 0.364258 18.9548 0.364258 20.6454C0.364258 22.535 1.41564 23.7284 3.0962 23.7284C4.55323 23.7284 5.51355 22.8582 5.64601 21.3582ZM10.2876 23.0239C10.2131 23.0405 10.18 23.0488 10.1138 23.0488C9.89854 23.0488 9.82403 22.9411 9.82403 22.6261C9.82403 21.988 9.85715 21.3582 9.85715 20.72C9.85715 20.3388 9.86542 19.8996 9.56739 19.6095C9.28592 19.3443 8.79748 19.1951 8.22626 19.1951C7.12521 19.1951 6.46292 19.7338 6.43808 20.6454H7.12521C7.19143 20.0156 7.53086 19.7752 8.18487 19.7752C8.81404 19.7752 9.15346 20.0239 9.15346 20.4797C9.15346 21.0598 8.80576 21.035 7.78749 21.1593C6.7775 21.2836 6.27253 21.7311 6.27253 22.4935C6.27253 23.2394 6.79406 23.7035 7.63848 23.7035C8.30077 23.7035 8.76437 23.4963 9.18658 23.0239C9.19486 23.43 9.4101 23.6538 9.80747 23.6538C9.96477 23.6538 10.1386 23.6289 10.2876 23.5709V23.0239ZM9.15346 21.3664V22.1455C9.15346 22.6924 8.51601 23.1483 7.85372 23.1483C7.32389 23.1483 7.00103 22.8748 7.00103 22.4355C7.00103 21.7477 7.69643 21.6897 8.2097 21.6234C8.52429 21.5819 8.88855 21.5653 9.15346 21.3664ZM11.6546 23.5875V21.6316H13.7904V23.5875H14.4941V19.3111H13.7904V21.0101H11.6546V19.3111H10.9509V23.5875H11.6546ZM19.3757 23.5875L17.4302 20.9935L19.1522 19.3111H18.2084L16.2547 21.3499V19.3111H15.551V23.5875H16.2547V22.1372L16.9252 21.4825L18.4816 23.5875H19.3757ZM23.1139 19.9327V19.3111H19.3472V19.9327H20.8787V23.5875H21.5824V19.9327H23.1139ZM25.5566 20.9355H23.1476V21.6316H25.5566V20.9355ZM5.32314 25.9743H0.654009V31.875H1.4322V26.6539H4.54495V31.875H5.32314V25.9743ZM10.1552 30.5241H9.46805C9.26936 31.1706 8.92994 31.4358 8.31733 31.4358C7.48946 31.4358 6.98447 30.8888 6.98447 29.9772L6.99275 29.9274H10.2048V29.828C10.2048 28.5931 9.67502 27.4743 8.26765 27.4743C7.08381 27.4743 6.28081 28.4108 6.28081 29.7948C6.28081 31.1871 7.03414 32.0159 8.29249 32.0159C9.30248 32.0159 9.93993 31.5103 10.1552 30.5241ZM9.47633 29.3556H6.99275C7.08381 28.5517 7.56397 28.0545 8.2511 28.0545C8.95478 28.0545 9.4101 28.5434 9.47633 29.3556ZM14.0754 28.2202V27.5986H10.3086V28.2202H11.8401V31.875H12.5438V28.2202H14.0754ZM18.1428 30.5241H17.4556C17.2569 31.1706 16.9175 31.4358 16.3049 31.4358C15.477 31.4358 14.9721 30.8888 14.9721 29.9772L14.9803 29.9274H18.1924V29.828C18.1924 28.5931 17.6626 27.4743 16.2552 27.4743C15.0714 27.4743 14.2684 28.4108 14.2684 29.7948C14.2684 31.1871 15.0217 32.0159 16.2801 32.0159C17.2901 32.0159 17.9275 31.5103 18.1428 30.5241ZM17.4639 29.3556H14.9803C15.0714 28.5517 15.5516 28.0545 16.2387 28.0545C16.9424 28.0545 17.3977 28.5434 17.4639 29.3556ZM19.6007 27.5986H18.9384V33.5242H19.6421V31.2783C20.0063 31.7755 20.4451 31.9827 21.0743 31.9827C22.2416 31.9827 22.9866 31.096 22.9866 29.712C22.9866 28.3279 22.2333 27.466 21.0412 27.466C20.412 27.466 19.9318 27.6732 19.6007 28.2036V27.5986ZM20.9335 28.0545C21.7614 28.0545 22.2581 28.6843 22.2581 29.7202C22.2581 30.7479 21.7614 31.386 20.9584 31.386C20.1305 31.386 19.6172 30.7562 19.6172 29.7202C19.6172 28.6843 20.114 28.0545 20.9335 28.0545ZM0.927203 35.2894C0.513273 35.9276 0.413929 36.9221 0.413929 37.7425C0.413929 38.0243 0.430487 38.2895 0.463601 38.5216C0.637452 39.6984 1.44048 40.3034 2.44219 40.3034C3.70882 40.3034 4.44561 39.4829 4.44561 38.0575C4.44561 36.6652 3.70054 35.8696 2.50014 35.8696C1.78818 35.8696 1.24179 36.2757 1.00171 36.8392H0.976875C1.10105 35.8281 1.58121 35.1071 2.5167 35.0408C3.26177 34.9828 4.14758 34.9994 4.30488 34.1209H3.60119C3.48529 34.3364 3.15415 34.3447 2.61604 34.3861C1.80474 34.4441 1.30802 34.701 0.927203 35.2894ZM1.13417 38.0823C1.13417 37.0795 1.63916 36.458 2.43391 36.458C3.22866 36.458 3.72537 37.0713 3.72537 38.074C3.72537 39.11 3.23693 39.7067 2.45047 39.7067C1.62261 39.7067 1.13417 39.0437 1.13417 38.0823ZM8.72151 35.8861H7.98472L6.78432 39.2923L5.51769 35.8861H4.72294L6.42006 40.1376L6.08891 40.9167C6.00613 41.1156 5.824 41.273 5.5922 41.273C5.46802 41.273 5.3604 41.2482 5.13687 41.1819V41.8117C5.31073 41.8531 5.4763 41.8863 5.65843 41.8863C6.42006 41.8863 6.66014 41.3145 6.89194 40.7095L8.72151 35.8861ZM9.98814 35.8861H9.32585V41.8117H10.0295V39.5658C10.3938 40.063 10.8326 40.2702 11.4617 40.2702C12.629 40.2702 13.3741 39.3835 13.3741 37.9995C13.3741 36.6154 12.6207 35.7535 11.4286 35.7535C10.7994 35.7535 10.3193 35.9607 9.98814 36.4911V35.8861ZM11.321 36.342C12.1489 36.342 12.6456 36.9718 12.6456 38.0077C12.6456 39.0354 12.1489 39.6735 11.3458 39.6735C10.518 39.6735 10.0047 39.0437 10.0047 38.0077C10.0047 36.9718 10.5014 36.342 11.321 36.342ZM17.1804 36.5077V35.8861H14.2498V40.1625H14.9535V36.5077H17.1804Z" fill="#292929"/>
<path d="M38.8292 17.516H36.5679C35.7578 21.0974 33.2265 21.9421 29.6826 21.9421V24.1045H35.6903V41.4375H38.8292V17.516ZM62.3762 23.6991C62.0725 19.7797 59.5074 17.4822 55.491 17.4822C48.437 17.4822 46.8169 24.2735 46.8169 30.0173C46.8169 35.5923 48.2345 41.9105 55.1535 41.9105C60.0136 41.9105 63.0175 38.3966 63.0175 33.7677C63.0175 29.1727 60.0474 26.098 55.5922 26.098C53.0946 26.098 50.9683 27.1116 49.652 29.2402C49.8208 25.9966 50.2595 19.9825 55.3897 19.9825C57.8198 19.9825 59.1361 21.4691 59.4399 23.6991H62.3762ZM55.086 28.5983C58.0898 28.5983 59.9799 30.6931 59.9799 34.038C59.9799 37.2816 58.0223 39.3427 55.1535 39.3427C52.2171 39.3427 50.192 37.2141 50.192 33.9029C50.192 30.7269 52.1834 28.5983 55.086 28.5983ZM65.8073 25.2533H68.6086C68.7099 21.8746 70.3974 19.9825 73.2663 19.9825C75.7639 19.9825 77.4177 21.5367 77.4177 23.9018C77.4177 26.3345 75.5614 27.8549 72.5913 27.8549C72.2538 27.8549 72.085 27.8549 71.6125 27.8211V30.2538C72.3213 30.1525 72.5913 30.1187 73.165 30.1187C76.4052 30.1187 78.464 31.9094 78.464 34.7138C78.464 37.4844 76.3377 39.3765 73.3 39.3765C70.1274 39.3765 68.2374 37.4506 68.1024 34.038H65.2673V34.4773C65.2673 39.0386 68.4399 41.9105 73.2663 41.9105C78.1602 41.9105 81.5691 38.971 81.5354 34.5111C81.5354 31.6053 79.8478 29.3754 77.1477 28.7334C79.2065 27.8549 80.4216 25.9966 80.4216 23.7329C80.4216 19.9825 77.6202 17.4822 73.4013 17.4822C68.6761 17.4822 65.9423 20.2865 65.8073 25.2533Z" fill="#292929"/>
</svg>
