<svg width="23" height="20" viewBox="0 0 23 20" xmlns="http://www.w3.org/2000/svg">
<path d="M21.9667 15.0309C21.1783 13.6071 17.7254 12.7004 14.6765 12.5284C14.4009 12.2334 14.1212 11.9231 13.8344 11.5969C11.2142 8.60096 10.1531 4.24719 9.75683 1.94076C9.70973 1.45204 9.65791 1.04575 9.61434 0.743096C9.57901 0.502267 9.50482 0 8.98253 0C8.8153 0 8.65397 0.0718366 8.53915 0.199611C8.35308 0.412177 8.38075 0.640641 8.41373 0.904434C8.45082 1.20709 8.50676 1.6122 8.58625 2.07443C8.80942 4.41618 8.91482 8.87476 7.11243 12.4165C6.92459 12.7857 6.73734 13.1402 6.55128 13.4782C3.17849 14.4592 0.456947 16.2086 0.0583134 17.6594C-0.0859485 18.1847 0.039471 18.6881 0.412197 19.0779C0.84616 19.5313 1.35844 19.7609 1.9349 19.7609C3.53061 19.7609 5.34949 17.9839 7.34089 14.481C8.22766 14.2478 9.10795 14.0853 9.9588 13.9993C10.2903 13.9657 10.8267 13.8957 11.1565 13.845C12.065 13.7049 13.0931 13.6484 14.1495 13.6831C16.5943 16.2245 18.5933 17.5128 20.0913 17.5128C20.8956 17.5122 21.5616 17.1201 21.9655 16.4088C22.214 15.9683 22.2152 15.4784 21.9667 15.0309ZM1.93431 18.5833C1.68465 18.5833 1.47149 18.482 1.26246 18.2636C1.17708 18.1747 1.15824 18.0981 1.19357 17.9721C1.39907 17.2249 3.1255 15.9442 5.64861 15.0144C4.22307 17.2637 2.85876 18.5833 1.93431 18.5833ZM10.9757 12.6827C10.6624 12.731 10.1537 12.7969 9.83927 12.8299C9.26752 12.8864 8.67987 12.9765 8.08693 13.0978C8.11166 13.0495 8.13639 13.0007 8.16112 12.9518C9.04495 11.2153 9.59255 9.13325 9.79511 6.74675C10.6059 9.01608 11.6634 10.9038 12.9477 12.3724C12.9854 12.4159 13.0248 12.4601 13.0625 12.5049C12.3212 12.5225 11.6216 12.5832 10.9757 12.6827ZM20.9386 15.8305C20.7431 16.1768 20.4652 16.3375 20.0666 16.3375H20.066C19.1297 16.3375 17.6901 15.4513 15.9666 13.8262C18.6339 14.1612 20.5871 14.9685 20.9374 15.6015C20.9881 15.6933 20.9881 15.7422 20.9386 15.8305Z" />
</svg>
